<svg xmlns="http://www.w3.org/2000/svg" width="32" height="32" viewBox="0 0 256 256"><path fill="#FF5D01" d="m195.32 178.68l-52.93-116.32a13 13 0 0 0-23.77-.07l-53.94 116.4l-.12.24l-.12.26a13 13 0 0 0 5.48 16.51a13 13 0 0 0 16.27-3.69l11.41-15.01h61.76l11.45 15.01a13 13 0 0 0 16.27 3.69a13 13 0 0 0 5.48-16.51c0-.18-.11-.36-.18-.54l-.18-.46zM113.84 152l14.16-30.43l14.16 30.43zM250.07 151l-.1-.45a12.92 12.92 0 0 0-15.42-9.61a13 13 0 0 0-9.62 15.42l4.81 21.08a13 13 0 0 0 15.42 9.61a13 13 0 0 0 9.61-15.42zM5.93 151l.1-.45a12.92 12.92 0 0 1 15.42-9.61a13 13 0 0 1 9.62 15.42L26.26 177.44a13 13 0 0 1-15.42 9.61a13 13 0 0 1-9.61-15.42z"/><path fill="#FF5D01" d="M225.42 119.26a13 13 0 0 1-1.63 18.31a13 13 0 0 1-18.33-1.63l-14-16a13 13 0 0 1 1.63-18.32a13 13 0 0 1 18.34 1.63zM30.58 119.26a13 13 0 0 0 1.63 18.31a13 13 0 0 0 18.33-1.63l14-16a13 13 0 0 0-1.63-18.32a13 13 0 0 0-18.34 1.63zM128 13a13 13 0 0 0-13 13v21.33a13 13 0 0 0 26 0V26a13 13 0 0 0-13-13z"/></svg>
